# xmcd
#
# Track frame offsets:
#	150
#	13047
#	25162
#	44825
#	56585
#	68145
#	80202
#	92102
#	104777
#	117877
#	131542
#	143027
#	156322
#
# Disc length: 2260 seconds
#
# Revision: 11
# Processed by: cddbd v1.5.2PL0 Copyright (c) Steve Scherf et al.
# Submitted via: audiograbber 1.83.01
#
DISCID=bc08d20d
DTITLE=Various Artist - Best of Country  - Vol. 1
DYEAR=1988
DGENRE=Country
TTITLE0=Lynn Anderson - Rose Garden
TTITLE1=Frankie Laine - High Noon (Do Not Forsake Me)
TTITLE2=Marty Robbins - El Paso
TTITLE3=Johnny Cash - Ring Of Fire
TTITLE4=Charlie Rich - The Most Beautiful Girl
TTITLE5=Tammy Wynette - Stand By Your Man
TTITLE6=Guy Mitchell - Heartaches By The Number
TTITLE7=Johnny Horton - North To Alaska
TTITLE8=Johnny Cash and June Carter - If I Where A Carpenter
TTITLE9=Lester Flatt and Earl Scruggs - Duelling Banjos
TTITLE10=Johnny Cash - A Thing Called Love
TTITLE11=Tammy Wynette - D-I-V-O-R-C-E
TTITLE12=Charlie Rich - Behind Closed Doors
EXTD=
EXTT0=
EXTT1=
EXTT2=
EXTT3=
EXTT4=
EXTT5=
EXTT6=
EXTT7=
EXTT8=
EXTT9=
EXTT10=
EXTT11=
EXTT12=
PLAYORDER=
